<svg xmlns="http://www.w3.org/2000/svg" viewBox="0 0 8000 4571">
<path d="
M3.999994,2205.874512 
	C24.382544,2200.837402 44.777264,2197.750977 65.145416,2194.498535 
	C129.581390,2184.208740 193.974594,2173.646240 258.446381,2163.586914 
	C324.895538,2153.219482 391.379974,2143.063477 457.919220,2133.293213 
	C509.972778,2125.649902 562.125793,2118.680420 614.249146,2111.516846 
	C669.007874,2103.991455 723.747070,2096.307129 778.562378,2089.214355 
	C836.695740,2081.692871 894.902954,2074.739502 953.088440,2067.625000 
	C1003.992065,2061.400635 1054.887573,2055.099609 1105.829468,2049.201660 
	C1147.507080,2044.376221 1189.250977,2040.123535 1230.959717,2035.563965 
	C1274.652344,2030.787842 1318.314575,2025.720947 1362.033325,2021.199219 
	C1408.409668,2016.402710 1454.839111,2012.119263 1501.241333,2007.570923 
	C1535.706665,2004.192627 1570.154297,2000.627197 1604.630859,1997.368530 
	C1638.447144,1994.172119 1672.287720,1991.231812 1706.121948,1988.226318 
	C1747.909668,1984.514282 1789.690552,1980.719971 1831.494995,1977.205811 
	C1869.320312,1974.026001 1907.172729,1971.166504 1945.014526,1968.182373 
	C1991.482178,1964.517944 2037.946777,1960.813599 2084.421631,1957.239868 
	C2107.660889,1955.452881 2130.917480,1953.881470 2154.170410,1952.275879 
	C2208.639648,1948.515259 2263.107910,1944.737793 2317.583984,1941.080078 
	C2342.828369,1939.384888 2368.084229,1937.837036 2393.346191,1936.424194 
	C2477.111328,1931.738892 2560.875000,1927.022827 2644.652344,1922.560547 
	C2699.168213,1919.656860 2753.698242,1916.985474 2808.237061,1914.550659 
	C2872.756348,1911.670166 2937.289795,1909.093628 3001.821777,1906.508667 
	C3038.415771,1905.042725 3075.017334,1903.750488 3111.619873,1902.512695 
	C3153.548828,1901.094482 3195.480225,1899.739502 3237.415283,1898.509521 
	C3286.008301,1897.084351 3334.602295,1895.653809 3383.203125,1894.535156 
	C3448.457764,1893.033081 3513.715820,1891.615723 3578.978760,1890.550415 
	C3654.252930,1889.321533 3729.533936,1888.489746 3804.812500,1887.537964 
	C3837.459961,1887.125244 3870.112793,1886.361450 3902.756592,1886.616821 
	C3950.054688,1886.986694 3997.352295,1887.893799 4044.639160,1889.027710 
	C4085.248047,1890.001831 4125.847168,1891.467529 4166.440430,1892.981689 
	C4221.631348,1895.040405 4276.812988,1897.352295 4331.486816,1899.535156 
	C4334.287598,1904.460938 4330.836914,1906.341187 4328.712891,1908.496704 
	C4318.464355,1918.897583 4307.900391,1928.995239 4297.857910,1939.588867 
	C4292.429199,1945.315308 4288.055664,1952.029419 4282.778320,1957.914917 
	C4277.513672,1963.786865 4272.442383,1969.621216 4265.608398,1974.272095 
	C4254.649902,1981.729736 4245.557617,1991.334717 4239.685547,2003.971680 
	C4234.958008,2014.145386 4228.127930,2023.347656 4222.164551,2032.939453 
	C4218.336914,2039.096069 4212.915527,2044.706665 4210.779785,2051.384277 
	C4205.190430,2068.860352 4192.493652,2082.124268 4184.749512,2098.235352 
	C4183.611328,2100.603271 4181.983398,2102.848633 4180.170898,2104.761230 
	C4165.969727,2119.747314 4151.721680,2134.690186 4137.329590,2149.491455 
	C4135.568848,2151.302246 4132.867188,2152.197510 4129.379395,2154.228760 
	C4118.812012,2146.591064 4108.012695,2139.025635 4097.535156,2131.037842 
	C4095.069824,2129.158447 4093.114502,2126.093262 4091.906006,2123.167969 
	C4085.185791,2106.903076 4070.167969,2103.483398 4055.603271,2099.701172 
	C4050.267090,2098.315186 4045.094971,2100.278809 4041.352539,2104.864502 
	C4032.187744,2116.095215 4018.021973,2119.989502 4006.750488,2128.171631 
	C4003.775635,2130.331299 3999.203857,2130.591064 3995.284912,2131.092285 
	C3984.938965,2132.416016 3976.216064,2136.496826 3969.732422,2144.870361 
	C3966.390625,2149.185791 3962.479248,2151.416260 3956.640869,2152.622803 
	C3934.364746,2157.226318 3915.127441,2169.514893 3894.823242,2179.070801 
	C3892.551270,2180.140137 3890.895264,2182.572998 3889.034912,2184.453857 
	C3869.373535,2204.329834 3849.778564,2224.272461 3830.010254,2244.041504 
	C3827.753418,2246.298828 3824.767090,2248.423340 3821.751221,2249.222168 
	C3807.951172,2252.877930 3798.652344,2262.486328 3790.683105,2273.192627 
	C3781.867920,2285.034912 3772.584229,2295.884766 3760.097168,2304.233887 
	C3753.653809,2308.541992 3749.008301,2315.611816 3743.767334,2321.622803 
	C3739.567871,2326.439697 3734.553223,2329.418457 3728.118896,2328.802979 
	C3711.058838,2327.171631 3696.674316,2331.460449 3686.865479,2346.545654 
	C3677.607666,2348.456543 3675.589844,2356.820801 3671.589111,2363.508057 
	C3661.002930,2381.201416 3651.202148,2399.464844 3639.344238,2416.270264 
	C3625.941162,2435.265869 3610.762207,2453.021973 3596.084473,2471.096924 
	C3591.427246,2476.832031 3585.488770,2481.871094 3578.047607,2482.938232 
	C3569.959473,2484.098145 3565.152344,2489.256348 3559.879883,2494.314453 
	C3548.342285,2505.383789 3536.843750,2516.498779 3525.101318,2527.347900 
	C3517.080566,2534.758301 3507.880127,2539.371826 3496.470459,2539.780029 
	C3491.475586,2539.958740 3486.035400,2542.030029 3481.733154,2544.731689 
	C3463.720947,2556.043945 3445.678467,2567.382080 3428.382568,2579.740234 
	C3410.515625,2592.506104 3393.687012,2606.714844 3376.048828,2619.813721 
	C3364.302246,2628.537354 3352.073242,2636.638428 3339.803467,2644.624023 
	C3325.890869,2653.678955 3311.330322,2661.772705 3297.705811,2671.227539 
	C3279.670898,2683.742188 3262.093750,2696.940918 3244.652832,2710.280518 
	C3230.469971,2721.128662 3218.238525,2734.637207 3201.244141,2741.579346 
	C3183.964355,2760.576416 3161.252686,2772.177734 3140.217529,2785.985352 
	C3126.338867,2795.095459 3111.684326,2803.030029 3097.295166,2811.349609 
	C3095.029541,2812.659424 3092.400391,2813.610596 3089.822266,2814.067383 
	C3064.189209,2818.608398 3041.384521,2831.005127 3017.279785,2839.794922 
	C3007.374512,2843.406982 3001.869385,2850.550781 2998.920654,2859.430664 
	C2993.933594,2874.448242 2990.258057,2889.901367 2985.322998,2907.729248 
	C2973.961670,2917.561035 2964.080566,2933.106689 2947.054199,2940.985596 
	C2942.481445,2943.101318 2939.192383,2948.064453 2935.422363,2951.829102 
	C2908.533936,2978.677490 2881.794434,3005.676025 2854.766357,3032.382812 
	C2833.451172,3053.444824 2811.762695,3074.128906 2790.311279,3095.053955 
	C2786.069824,3099.191406 2782.153320,3103.662109 2778.679443,3107.350098 
	C2778.326904,3119.148682 2783.011230,3127.437012 2790.378174,3134.772705 
	C2800.764648,3145.115479 2810.840088,3155.772217 2821.000488,3166.340576 
	C2828.342041,3173.976807 2835.165771,3181.696533 2840.732422,3191.116943 
	C2847.387939,3202.380127 2857.592529,3211.559570 2866.356201,3221.556641 
	C2869.426758,3225.059570 2873.895752,3227.777100 2875.813721,3231.771240 
	C2883.390137,3247.548584 2898.089600,3255.969238 2910.604492,3266.572510 
	C2917.721436,3272.601807 2925.727539,3277.458984 2935.949707,3276.271240 
	C2940.643555,3275.725830 2944.998535,3276.700684 2948.997559,3279.958252 
	C2951.377197,3281.895996 2954.939209,3283.253906 2957.998535,3283.310791 
	C2965.143799,3283.443359 2970.814941,3286.834961 2976.189209,3290.621826 
	C2983.458008,3295.742920 2991.711426,3298.406982 3000.108154,3299.291016 
	C3019.263428,3301.307617 3038.325684,3304.679443 3057.771240,3303.656982 
	C3067.725098,3303.134033 3077.755371,3304.276123 3087.741699,3304.105713 
	C3097.603760,3303.937988 3105.489746,3307.084473 3112.913330,3313.878662 
	C3122.651123,3322.790283 3133.522705,3330.472168 3144.006592,3338.552734 
	C3146.628662,3340.573730 3149.448486,3343.124268 3152.494629,3343.674316 
	C3166.734375,3346.244141 3175.169189,3356.752930 3184.702881,3365.947998 
	C3194.767334,3375.655029 3205.172607,3385.007568 3215.319336,3394.630615 
	C3223.588379,3402.473389 3231.625000,3410.037842 3244.443604,3409.847168 
	C3248.475830,3409.787354 3252.788330,3413.362061 3256.564453,3415.883789 
	C3259.853516,3418.080811 3262.457031,3421.275635 3265.560791,3423.785400 
	C3270.722656,3427.960205 3275.484619,3433.289795 3281.405273,3435.735596 
	C3296.280762,3441.881104 3309.440186,3449.716309 3320.974365,3461.321777 
	C3326.829834,3467.213867 3336.639648,3467.686035 3345.533447,3467.597900 
	C3368.196533,3467.373535 3390.896240,3468.295654 3413.520508,3467.333252 
	C3442.332031,3466.107422 3470.450684,3469.017578 3498.076172,3477.146973 
	C3501.239258,3478.077393 3504.473389,3479.546387 3507.656738,3479.501709 
	C3529.854736,3479.191406 3549.277100,3486.924805 3567.866211,3500.368408 
	C3577.254150,3493.646729 3588.228271,3492.673828 3599.532959,3492.040527 
	C3613.367188,3491.265381 3627.354492,3490.255127 3640.871582,3487.420898 
	C3665.818848,3482.190186 3691.079346,3482.168213 3716.266113,3481.191650 
	C3741.544922,3480.211670 3766.870850,3480.412109 3792.177002,3480.194580 
	C3824.149658,3479.919922 3856.125488,3479.426270 3888.094971,3479.676270 
	C3901.986328,3479.784912 3915.888916,3482.602783 3929.744873,3482.299561 
	C3972.962158,3481.353760 4016.199463,3480.203857 4059.259766,3476.003418 
	C4063.623779,3475.577881 4068.052979,3473.424561 4071.959473,3471.206299 
	C4079.678467,3466.823242 4087.601318,3464.889893 4096.599609,3464.792236 
	C4136.538086,3464.359375 4176.469727,3463.319092 4216.403809,3462.503418 
	C4217.736816,3462.476074 4219.119629,3462.728027 4220.396484,3462.457275 
	C4238.715332,3458.571045 4257.264160,3458.034668 4275.896973,3458.335693 
	C4278.471680,3458.377441 4281.493652,3457.941895 4283.574707,3456.594482 
	C4292.610352,3450.744141 4302.646484,3451.916504 4312.587402,3451.395752 
	C4323.187988,3450.840332 4333.843750,3449.864502 4344.274902,3447.970703 
	C4354.679688,3446.081787 4364.844727,3443.360352 4375.437012,3441.866943 
	C4388.369141,3440.043457 4401.078125,3435.012695 4413.225098,3429.826904 
	C4420.854980,3426.568848 4428.261230,3424.776611 4436.329590,3424.960449 
	C4455.627930,3425.399658 4474.924805,3425.941162 4494.223145,3426.387207 
	C4505.531738,3426.648193 4516.731934,3426.684326 4527.910645,3423.760742 
	C4541.266113,3420.268311 4554.924805,3418.184326 4568.220215,3414.068359 
	C4575.506348,3411.812256 4581.631348,3409.267334 4586.710938,3403.650146 
	C4591.175293,3398.713623 4596.045410,3394.135498 4600.853027,3389.521240 
	C4605.255859,3385.296387 4610.279785,3382.541016 4616.541016,3381.464844 
	C4631.451172,3378.901611 4646.815918,3377.315674 4660.935547,3372.329834 
	C4673.102539,3368.034180 4686.774414,3365.867432 4696.591797,3355.937744 
	C4698.435059,3354.072998 4700.689941,3352.336670 4703.088379,3351.349121 
	C4712.779785,3347.357910 4722.921875,3344.331299 4732.281738,3339.703369 
	C4741.156250,3335.315674 4749.266602,3329.943115 4759.425293,3327.971924 
	C4773.032715,3325.331299 4785.630859,3318.424805 4799.943359,3318.053955 
	C4802.958008,3317.975830 4806.587891,3316.213379 4808.787109,3314.056885 
	C4830.367676,3292.895020 4858.476562,3281.120605 4882.149414,3262.955566 
	C4885.871094,3260.100098 4892.287598,3259.292969 4897.242676,3259.770508 
	C4916.080078,3261.584961 4934.025879,3254.747803 4952.724121,3254.937256 
	C4961.829102,3255.029785 4971.156738,3252.635986 4980.034668,3250.129639 
	C4988.853516,3247.639893 4997.268066,3243.681152 5005.785156,3240.182617 
	C5008.217285,3239.183350 5010.814453,3237.958740 5012.602051,3236.122314 
	C5021.631348,3226.846436 5033.415527,3224.981934 5045.340820,3223.739258 
	C5059.218750,3222.292969 5073.147949,3221.334473 5087.050781,3220.120605 
	C5089.028809,3219.947998 5091.105469,3219.854004 5092.932617,3219.174805 
	C5104.078613,3215.032959 5115.926270,3212.020508 5126.019531,3206.058105 
	C5133.444336,3201.672607 5140.568359,3200.207031 5148.573242,3199.799561 
	C5153.227051,3199.562500 5157.862793,3198.632324 5162.506836,3198.631592 
	C5170.282227,3198.630371 5176.851074,3196.378418 5182.020020,3190.342773 
	C5185.577637,3186.188477 5189.900391,3184.116943 5195.653809,3183.184570 
	C5204.056641,3181.822754 5212.269531,3178.844238 5220.302734,3175.853271 
	C5223.854980,3174.530273 5227.081543,3171.821777 5229.907715,3169.159668 
	C5236.693359,3162.768555 5243.154785,3156.032471 5252.077148,3148.622559 
	C5256.151855,3147.878418 5257.895996,3147.947510 5259.640625,3148.016602 
	C5258.363770,3151.739746 5258.107910,3156.454102 5255.627930,3159.010010 
	C5246.307617,3168.614990 5238.636719,3179.168945 5231.834473,3190.724609 
	C5226.186523,3200.318848 5218.453125,3208.693604 5211.560547,3217.543945 
	C5206.133301,3224.512451 5202.643066,3231.864746 5202.506836,3241.159424 
	C5202.393555,3248.933594 5202.119629,3257.269775 5196.091309,3263.640869 
	C5195.644531,3264.112793 5194.994141,3264.882080 5195.115234,3265.329834 
	C5199.317871,3280.843750 5187.560547,3288.475098 5178.510742,3296.310547 
	C5162.396484,3310.262451 5152.671875,3327.458252 5146.368164,3347.462402 
	C5142.600586,3359.420898 5136.309082,3370.497314 5136.311035,3383.638428 
	C5136.311523,3387.086670 5133.640137,3391.028809 5131.188477,3393.878662 
	C5126.426758,3399.415283 5120.993164,3404.380859 5115.760742,3409.504395 
	C5110.048340,3415.098389 5105.251465,3421.255859 5102.216309,3428.928955 
	C5118.041504,3432.287598 5123.257812,3432.773193 5134.446289,3426.700684 
	C5141.736816,3422.744385 5150.566406,3426.725830 5157.045410,3420.253906 
	C5162.176270,3415.128906 5167.620605,3409.170654 5174.106934,3406.752686 
	C5199.816895,3397.167969 5218.026367,3378.186035 5236.745117,3359.602295 
	C5266.900391,3329.663574 5295.200684,3297.955078 5324.819824,3267.509033 
	C5360.547363,3230.784424 5394.697754,3192.496582 5432.896484,3158.213379 
	C5433.870117,3157.339355 5434.541504,3156.128174 5436.354004,3153.776367 
	C5436.354004,3150.443848 5436.074707,3145.793945 5436.449219,3141.197510 
	C5436.710938,3137.989014 5437.179199,3134.453613 5438.745605,3131.755371 
	C5445.691895,3119.786133 5451.225098,3106.855225 5462.430664,3097.730469 
	C5468.091797,3093.121338 5472.031250,3087.150146 5475.410156,3080.387207 
	C5478.886719,3073.428223 5484.265137,3067.081787 5489.940918,3061.646729 
	C5496.578125,3055.291992 5500.769043,3048.329102 5500.835449,3039.164307 
	C5500.912109,3028.511230 5505.568359,3022.456787 5516.192383,3019.035645 
	C5538.662598,3011.800049 5556.063965,2995.812500 5575.022949,2982.576416 
	C5578.279297,2980.303467 5581.655762,2978.203125 5588.062988,2976.191895 
	C5598.920898,2975.860840 5606.699219,2975.436279 5614.453613,2974.743408 
	C5615.222168,2974.674805 5615.844727,2972.970215 5616.531738,2972.022461 
	C5608.889160,2967.510986 5608.889160,2967.510986 5591.532715,2968.389404 
	C5576.708496,2959.431396 5563.860352,2948.526611 5553.098633,2934.635498 
	C5543.613281,2922.392578 5528.536621,2917.106445 5515.486328,2909.418213 
	C5504.520996,2911.595947 5496.383789,2904.447021 5487.763672,2900.141357 
	C5470.590820,2891.563721 5453.903809,2881.897217 5439.736328,2868.606445 
	C5425.648926,2855.391846 5425.684570,2855.353760 5409.838867,2850.141602 
	C5405.893066,2842.902344 5411.192383,2837.131592 5414.208496,2831.956787 
	C5419.644043,2822.631348 5419.929199,2814.782227 5413.000977,2806.336914 
	C5409.692383,2802.304199 5407.958496,2796.956299 5404.558594,2793.028564 
	C5399.957031,2787.712646 5398.842773,2781.412598 5396.767090,2775.901123 
	C5400.186035,2770.959229 5404.452148,2772.333252 5408.116699,2772.272461 
	C5420.112305,2772.074219 5432.123047,2772.504395 5444.107422,2772.089844 
	C5452.673340,2771.793701 5461.196289,2769.953369 5469.755371,2769.808594 
	C5492.370605,2769.426025 5514.997070,2769.454346 5537.614746,2769.700684 
	C5540.650391,2769.733643 5543.662109,2771.967285 5548.344727,2773.849121 
	C5544.340820,2768.151123 5540.935059,2763.304443 5537.089355,2757.832275 
	C5540.586914,2754.793457 5543.454102,2752.302490 5546.634766,2749.538818 
	C5545.674805,2734.720459 5531.363281,2730.142090 5524.154297,2722.869385 
	C5520.517578,2711.952881 5517.648438,2703.218994 5514.693848,2694.513916 
	C5512.801758,2688.937988 5508.592773,2685.615479 5503.054688,2684.717041 
	C5484.793457,2681.753906 5468.731934,2672.724121 5451.634277,2666.568848 
	C5434.786621,2660.503662 5420.965332,2651.118652 5415.873047,2633.850098 
	C5407.344727,2630.800781 5399.913574,2628.143555 5392.448730,2625.474609 
	C5392.448730,2615.416748 5392.448730,2606.335938 5392.448730,2596.764893 
	C5412.934082,2589.525146 5433.787109,2587.194824 5454.187012,2583.295898 
	C5453.658203,2574.109863 5443.652344,2575.087891 5440.438477,2567.993896 
	C5441.024414,2565.110596 5441.787598,2561.353760 5442.549805,2557.597168 
	C5442.126465,2557.260986 5441.749023,2556.815430 5441.269043,2556.615234 
	C5440.665527,2556.363525 5439.953125,2556.121094 5439.330566,2556.201904 
	C5416.827637,2559.130615 5403.795898,2545.686523 5392.351562,2528.913086 
	C5386.469727,2527.219971 5380.812500,2528.214600 5375.558594,2531.634766 
	C5366.486328,2537.541016 5357.021973,2538.346924 5346.991211,2534.297607 
	C5344.557129,2533.314941 5341.868164,2532.760498 5339.245605,2532.479492 
	C5323.559570,2530.797852 5311.194824,2524.740723 5305.980469,2508.458740 
	C5305.484375,2506.910400 5303.086914,2505.971191 5300.642578,2503.999512 
	C5296.909180,2507.559814 5293.193359,2511.103271 5288.693848,2515.394531 
	C5273.491211,2511.224365 5263.101562,2501.110596 5256.688965,2486.926270 
	C5247.961914,2481.260010 5238.826172,2482.034668 5230.017090,2483.795654 
	C5220.081055,2473.246338 5210.562988,2463.141113 5200.541992,2452.501953 
	C5194.547363,2454.063965 5188.898438,2455.535645 5182.701660,2457.150146 
	C5181.392578,2456.520020 5179.454590,2455.941406 5177.941895,2454.799072 
	C5170.547852,2449.216064 5163.203125,2443.563232 5155.960449,2437.785889 
	C5142.388672,2426.961426 5131.669922,2413.691162 5121.159668,2399.887695 
	C5114.097168,2390.611328 5103.643555,2383.788330 5094.259766,2376.439697 
	C5082.303223,2367.076660 5070.660156,2358.105469 5065.312988,2342.610596 
	C5062.846191,2335.462891 5056.227539,2329.606934 5050.985840,2323.606934 
	C5047.416504,2319.520996 5042.872070,2316.861816 5036.812988,2318.613281 
	C5029.256348,2320.797852 5022.432617,2317.843750 5015.570312,2315.105957 
	C5007.003906,2311.688477 4998.330078,2308.541260 4988.950195,2304.992676 
	C4982.345703,2296.326172 4975.110352,2286.837158 4967.880859,2277.343750 
	C4964.308105,2272.651855 4961.062988,2268.112793 4958.930176,2262.199219 
	C4953.831543,2248.065430 4946.503418,2246.305664 4932.844727,2253.968750 
	C4931.158203,2254.915039 4929.259766,2255.483887 4927.859375,2256.062256 
	C4909.182617,2252.083740 4894.440918,2242.664551 4882.344238,2228.709229 
	C4879.315430,2225.215332 4875.871582,2221.857666 4872.025391,2219.345459 
	C4864.919922,2214.705566 4858.205078,2210.559326 4853.257324,2202.725098 
	C4849.185547,2196.278076 4842.814941,2191.173096 4843.043457,2182.851318 
	C4836.731445,2182.851318 4832.814453,2182.851318 4828.553711,2182.851318 
	C4814.767090,2154.969482 4794.002441,2136.253662 4763.048828,2132.406006 
	C4759.569336,2127.533691 4757.083496,2122.881592 4753.521484,2119.299316 
	C4745.104004,2110.833984 4736.357422,2102.668457 4727.396484,2094.776855 
	C4719.415039,2087.747803 4711.138184,2081.024902 4702.675781,2074.581055 
	C4694.611816,2068.440918 4687.751465,2061.690430 4683.563965,2052.101318 
	C4678.574219,2040.676025 4646.267090,2005.721069 4636.290527,1998.710815 
	C4627.500488,1992.534180 4617.291992,1993.392700 4607.571777,1991.793945 
	C4591.853027,1977.279907 4576.651367,1962.568970 4567.755371,1942.710938 
	C4557.491699,1934.466919 4551.460449,1921.595215 4538.548828,1916.170166 
	C4536.481934,1915.301636 4534.998047,1913.045288 4533.098633,1911.295898 
	C4534.916016,1909.875366 4535.827148,1908.545776 4536.733398,1908.549438 
	C4547.383789,1908.591187 4558.046875,1908.569336 4568.681152,1909.082642 
	C4585.300781,1909.885010 4601.894531,1911.207031 4618.510254,1912.095459 
	C4684.323242,1915.614624 4750.141602,1919.036133 4815.955566,1922.522949 
	C4851.196777,1924.389893 4886.447754,1926.108276 4921.671387,1928.265015 
	C4974.833984,1931.520020 5027.979492,1935.072388 5081.127930,1938.554077 
	C5103.718750,1940.033936 5126.298340,1941.686157 5148.886230,1943.204590 
	C5196.719238,1946.419922 5244.574219,1949.335938 5292.384277,1952.858643 
	C5352.144531,1957.261719 5411.868164,1962.156006 5471.608398,1966.829834 
	C5512.106934,1969.998291 5552.622070,1972.967285 5593.101074,1976.366699 
	C5630.925781,1979.543335 5668.710449,1983.193359 5706.516602,1986.591431 
	C5741.672363,1989.751465 5776.846680,1992.715698 5811.989258,1996.015137 
	C5861.712891,2000.683594 5911.415527,2005.573120 5961.125977,2010.382568 
	C5994.933594,2013.653320 6028.750000,2016.832153 6062.541504,2020.262817 
	C6104.945312,2024.567627 6147.339844,2028.979248 6189.716309,2033.544800 
	C6234.079102,2038.324585 6278.423340,2043.274292 6322.761719,2048.274658 
	C6361.141113,2052.603271 6399.511230,2057.010742 6437.865234,2061.559326 
	C6477.551270,2066.266113 6517.222656,2071.105225 6556.882324,2076.032715 
	C6595.206055,2080.794189 6633.508789,2085.718750 6671.815430,2090.613525 
	C6706.167969,2095.002930 6740.527344,2099.343994 6774.857910,2103.896973 
	C6819.751953,2109.850830 6864.634766,2115.895020 6909.497070,2122.081787 
	C6951.718262,2127.904053 6993.922363,2133.856689 7036.106445,2139.942871 
	C7085.537598,2147.074463 7134.964355,2154.242920 7184.346191,2161.708740 
	C7231.751953,2168.875244 7279.113281,2176.336670 7326.463379,2183.863281 
	C7379.730957,2192.330322 7432.997070,2200.817139 7486.203125,2209.662109 
	C7536.775391,2218.069580 7587.292969,2226.810547 7637.790527,2235.657715 
	C7701.408691,2246.803711 7765.023438,2257.977295 7828.561035,2269.566650 
	C7884.242676,2279.722900 7939.817383,2290.463135 7995.431152,2300.988037 
	C7997.374512,2301.355469 7999.231445,2302.181152 8002.564453,2303.396729 
	C8004.000000,3061.228760 8004.000000,3818.457275 8004.000000,4575.842773 
	C5337.806152,4575.842773 2671.612305,4575.842773 4.000000,4575.842773 
	C4.000000,3786.583740 4.000000,2997.166504 3.999994,2205.874512 
z"/>
</svg>