<svg viewBox="0 0 8000 4571" xmlns="http://www.w3.org/2000/svg">
  
  <path d="
M8004.000000,2298.125488 
	C7998.141602,2299.787842 7992.145508,2300.313232 7986.446289,2299.249756 
	C7927.520996,2288.258057 7868.689941,2276.755127 7809.738770,2265.906494 
	C7753.417480,2255.541748 7697.017090,2245.596924 7640.591797,2235.809814 
	C7573.674316,2224.202393 7506.723633,2212.779297 7439.729980,2201.622070 
	C7394.401855,2194.073730 7348.988281,2187.034668 7303.587891,2179.927002 
	C7255.557617,2172.407471 7207.523438,2164.904785 7159.443848,2157.709961 
	C7109.386230,2150.219482 7059.284668,2143.019043 7009.179199,2135.854004 
	C6967.639648,2129.913818 6926.080566,2124.098877 6884.502930,2118.429688 
	C6837.649414,2112.041016 6790.772949,2105.823730 6743.893066,2099.631348 
	C6697.018066,2093.440186 6650.152344,2087.159668 6603.234375,2081.308350 
	C6554.320801,2075.207764 6505.348633,2069.575439 6456.402832,2063.734131 
	C6416.062988,2058.919434 6375.746582,2053.902100 6335.378906,2049.334717 
	C6293.681152,2044.616943 6251.931641,2040.350586 6210.208496,2035.854736 
	C6179.745605,2032.572388 6149.293457,2029.191772 6118.827148,2025.939209 
	C6087.700684,2022.616211 6056.574707,2019.281738 6025.427734,2016.160522 
	C5991.624512,2012.773315 5957.796875,2009.633667 5923.981445,2006.371948 
	C5888.842773,2002.982666 5853.712891,1999.499634 5818.565430,1996.198120 
	C5778.773438,1992.460327 5738.978027,1988.756470 5699.164062,1985.264893 
	C5662.004395,1982.006104 5624.818848,1979.035645 5587.643555,1975.956543 
	C5546.485352,1972.547485 5505.325684,1969.158203 5464.166504,1965.761353 
	C5443.589844,1964.063232 5423.023438,1962.231079 5402.434570,1960.695312 
	C5330.703613,1955.345337 5258.987305,1949.769897 5187.222656,1944.904541 
	C5114.785156,1939.993408 5042.299805,1935.787476 4969.831055,1931.343384 
	C4909.338867,1927.633789 4848.851562,1923.815796 4788.341309,1920.428589 
	C4715.197266,1916.333984 4642.031738,1912.617188 4568.872070,1908.807373 
	C4559.559570,1908.322388 4550.224609,1908.282471 4540.901367,1907.989868 
	C4537.575684,1907.885498 4534.033203,1908.333252 4530.967773,1907.350220 
	C4513.777832,1901.836548 4504.182129,1896.662964 4508.106934,1878.708252 
	C4508.376465,1877.474243 4508.142090,1876.130371 4508.142090,1874.704468 
	C4502.822266,1873.137695 4497.083496,1873.687622 4492.481934,1868.796753 
	C4489.124512,1865.229248 4483.444824,1863.847290 4478.628906,1861.403931 
	C4478.106445,1855.917725 4477.627930,1850.888672 4477.085449,1845.193237 
	C4472.348633,1844.955933 4468.444824,1844.430176 4464.579102,1844.631592 
	C4454.817383,1845.140503 4446.428223,1842.924927 4439.218262,1835.619629 
	C4431.765137,1828.068359 4420.874512,1828.582275 4411.061035,1824.999023 
	C4403.149414,1831.050049 4395.270508,1837.051025 4387.431152,1843.103394 
	C4386.387695,1843.909058 4385.552246,1844.982422 4384.609375,1845.920532 
	C4377.212891,1853.281616 4376.710449,1865.445190 4365.624023,1870.686401 
	C4356.498535,1875.000488 4351.094727,1884.028076 4345.617676,1892.504395 
	C4342.614746,1897.151489 4337.735352,1899.521851 4331.925293,1899.278931 
	C4321.284180,1898.833862 4310.644531,1898.331299 4300.000000,1897.977783 
	C4232.766602,1895.744385 4165.532227,1893.541992 4098.297852,1891.335693 
	C4045.049805,1889.588257 3991.812012,1887.253418 3938.549561,1886.308105 
	C3899.924561,1885.622681 3861.266602,1886.780884 3822.623291,1887.122437 
	C3815.959473,1887.181274 3809.296143,1887.290527 3802.632080,1887.335693 
	C3735.984863,1887.787598 3669.333252,1887.880249 3602.691895,1888.776489 
	C3537.417969,1889.654297 3472.152100,1891.232300 3406.887939,1892.721436 
	C3356.279297,1893.876099 3305.671143,1895.138062 3255.076172,1896.767456 
	C3193.173584,1898.760864 3131.282227,1901.119019 3069.391113,1903.443604 
	C2988.855713,1906.468262 2908.308594,1909.250122 2827.796875,1912.819458 
	C2757.942871,1915.916504 2688.121094,1919.788818 2618.302979,1923.643311 
	C2552.470459,1927.277832 2486.660889,1931.326050 2420.842041,1935.211304 
	C2368.981934,1938.272461 2317.108643,1941.137695 2265.268555,1944.506592 
	C2218.078857,1947.573364 2170.924316,1951.177368 2123.757324,1954.588501 
	C2080.577393,1957.711548 2037.391113,1960.755493 1994.227295,1964.088867 
	C1951.724976,1967.371094 1909.244385,1970.937744 1866.759766,1974.445557 
	C1828.923706,1977.569702 1791.085327,1980.672241 1753.265869,1983.989990 
	C1714.116821,1987.424438 1674.990356,1991.116333 1635.852417,1994.677246 
	C1601.356812,1997.815918 1566.849487,2000.828247 1532.364990,2004.082764 
	C1499.871216,2007.149536 1467.394165,2010.396851 1434.921509,2013.680786 
	C1401.787598,2017.031616 1368.658813,2020.437378 1335.544556,2023.976074 
	C1291.173584,2028.717529 1246.818115,2033.601807 1202.457520,2038.439575 
	C1173.325195,2041.616577 1144.181763,2044.699463 1115.068115,2048.040039 
	C1075.367432,2052.594727 1035.681763,2057.283936 996.005615,2062.047607 
	C958.311523,2066.573486 920.623291,2071.154053 882.958984,2075.919678 
	C834.723816,2082.022705 786.505066,2088.258789 738.297974,2094.580322 
	C695.378601,2100.208984 652.469910,2105.923340 609.583862,2111.799561 
	C566.694153,2117.676270 523.816223,2123.648438 480.973511,2129.856689 
	C431.541168,2137.020508 382.140411,2144.405273 332.749298,2151.848877 
	C285.998047,2158.895020 239.248154,2165.959717 192.550873,2173.352539 
	C146.515381,2180.640381 100.546158,2188.347168 54.548954,2195.876953 
	C38.791580,2198.456299 23.037672,2201.056641 5.641112,2203.823975 
	C4.000000,1470.768921 4.000000,737.537781 4.000000,4.288842 
	C2670.666748,4.288842 5337.333496,4.288842 8004.000000,4.288842 
	C8004.000000,768.468689 8004.000000,1532.359741 8004.000000,2298.125488 
z"/>
</svg>
