<svg viewBox="0 0 8000 4571" xmlns="http://www.w3.org/2000/svg">
<path d="M4717.878906,2086.086670 
	C4731.182129,2098.269043 4743.546387,2109.371826 4755.545898,2120.855469 
	C4758.254395,2123.446777 4759.692871,2127.364990 4762.512695,2131.976074 
	C4792.491211,2136.074463 4814.285156,2153.510986 4827.952148,2182.275391 
	C4832.462891,2182.559326 4836.878418,2182.836914 4840.977051,2183.094971 
	C4848.625977,2197.536621 4855.911133,2211.357666 4871.151855,2218.751465 
	C4875.182617,2220.706787 4878.515625,2224.467041 4881.623535,2227.893311 
	C4893.931152,2241.464111 4907.920898,2252.200439 4928.425293,2255.740479 
	C4929.641113,2255.087646 4932.452148,2253.505859 4935.326660,2252.047363 
	C4945.046875,2247.115234 4953.533203,2248.389648 4956.944824,2257.745117 
	C4963.770020,2276.460449 4978.936035,2289.055420 4988.906250,2305.149170 
	C4997.193359,2308.019531 5005.532715,2310.275635 5013.311523,2313.776611 
	C5021.383789,2317.409912 5029.181641,2320.635254 5038.238770,2318.304199 
	C5043.431641,2316.967773 5047.563965,2319.667969 5050.582520,2323.205811 
	C5056.182129,2329.769043 5063.002441,2336.146240 5065.994141,2343.884766 
	C5070.806641,2356.334473 5079.229004,2364.755127 5089.268066,2372.454346 
	C5097.162109,2378.508545 5104.869629,2384.810303 5112.546387,2391.139648 
	C5115.624023,2393.677490 5119.147949,2396.117920 5121.188477,2399.398682 
	C5136.284180,2423.676270 5158.133301,2440.732422 5181.915527,2457.204590 
	C5187.152344,2455.803223 5192.821289,2454.286133 5199.125000,2452.599121 
	C5210.067871,2461.113525 5219.625977,2471.090820 5227.333008,2482.177734 
	C5237.014648,2482.895508 5246.040039,2483.564453 5255.151855,2484.239990 
	C5262.344238,2499.520752 5272.408203,2510.342529 5288.471680,2515.306641 
	C5292.228516,2511.701172 5295.937012,2508.142822 5299.331543,2504.885742 
	C5301.389648,2505.547119 5303.063965,2505.560791 5303.659180,2506.368896 
	C5305.977539,2509.521973 5308.247559,2512.779297 5309.999023,2516.267822 
	C5313.895996,2524.029297 5320.100586,2528.362793 5328.498047,2529.988281 
	C5334.376953,2531.126221 5340.481934,2531.793945 5346.005859,2533.919922 
	C5356.828613,2538.085449 5366.533203,2537.113770 5376.525879,2531.199219 
	C5380.776367,2528.683350 5386.441406,2528.558838 5391.447754,2527.351318 
	C5403.758301,2546.706055 5418.634277,2559.638916 5442.518555,2556.294189 
	C5441.671875,2560.621826 5441.047363,2563.813965 5440.496094,2566.630127 
	C5441.568359,2575.123535 5454.220215,2573.468018 5453.795898,2582.752686 
	C5433.744629,2586.884521 5413.759766,2591.002686 5393.256348,2595.227539 
	C5392.782227,2605.491943 5392.360840,2614.603516 5391.948242,2623.534668 
	C5398.541992,2629.635254 5406.960938,2629.942383 5414.230469,2632.969482 
	C5415.070312,2633.933350 5416.303711,2634.763428 5416.687012,2635.884277 
	C5421.860840,2651.009033 5433.357422,2659.482666 5447.592773,2664.610596 
	C5466.022461,2671.249023 5483.235840,2681.221924 5502.860352,2684.621582 
	C5508.404297,2685.581787 5512.642578,2688.793945 5514.612305,2694.327393 
	C5516.833496,2700.565430 5520.256836,2706.754395 5520.714844,2713.139893 
	C5521.229004,2720.308350 5524.772461,2724.826660 5530.086426,2727.312500 
	C5539.481934,2731.708008 5543.462891,2739.479980 5546.463379,2748.773682 
	C5543.840820,2751.232666 5541.114746,2753.788574 5537.500977,2757.176758 
	C5540.588867,2762.175293 5543.502441,2766.892334 5545.947754,2770.851074 
	C5538.706055,2770.206543 5530.983887,2769.149658 5523.236816,2768.917480 
	C5511.914062,2768.578125 5500.573730,2768.774414 5489.241699,2768.850342 
	C5480.622559,2768.908203 5472.162598,2769.193115 5463.535156,2771.138428 
	C5455.257324,2773.004639 5446.310547,2771.920898 5437.657227,2772.102783 
	C5424.485840,2772.379639 5411.263672,2771.514648 5397.362793,2772.801758 
	C5397.403809,2780.811279 5399.668457,2786.740723 5403.972168,2792.042480 
	C5406.062012,2794.617676 5408.352051,2797.090820 5410.054688,2799.910156 
	C5420.399902,2817.042480 5420.254395,2817.029297 5411.951172,2836.301758 
	C5410.215332,2840.331299 5409.490234,2844.796387 5407.913086,2850.442627 
	C5422.236816,2852.504150 5431.616699,2860.089111 5440.867188,2869.239258 
	C5458.011230,2886.198242 5480.343262,2895.743164 5501.164551,2907.331055 
	C5502.291992,2907.958984 5503.717773,2908.473633 5504.966309,2908.397705 
	C5520.293945,2907.468994 5530.193359,2918.858643 5542.175781,2925.214844 
	C5548.426758,2928.530762 5554.636230,2933.939209 5558.156250,2939.980469 
	C5566.019531,2953.477783 5579.824707,2959.194580 5591.176270,2968.081299 
	C5596.016602,2971.870605 5601.888672,2972.458740 5611.745117,2970.038574 
	C5597.076660,2967.056396 5589.499023,2975.072754 5580.864746,2978.542236 
	C5573.649902,2981.441162 5566.910156,2986.549805 5561.214355,2991.992432 
	C5547.906738,3004.706787 5531.844727,3012.625732 5515.177246,3019.153809 
	C5505.704102,3022.864014 5500.975586,3028.354248 5500.987305,3038.201416 
	C5500.999023,3048.262939 5496.381348,3055.697021 5489.043945,3062.347412 
	C5482.159668,3068.587891 5476.842773,3076.124512 5472.748535,3084.793945 
	C5470.024414,3090.562256 5465.060547,3095.700928 5460.059570,3099.877441 
	C5449.400391,3108.779541 5444.350098,3121.312744 5438.311035,3132.932129 
	C5435.178711,3138.958496 5436.241211,3147.165039 5435.241699,3155.836182 
	C5431.240234,3159.573975 5426.211426,3163.906738 5421.595215,3168.641846 
	C5382.533203,3208.708252 5343.560059,3248.861572 5304.531738,3288.960693 
	C5292.445801,3301.377686 5279.250000,3312.877441 5268.370117,3326.265625 
	C5251.076660,3347.546387 5230.701172,3365.590088 5210.705566,3383.984619 
	C5201.222656,3392.708008 5190.572266,3400.798096 5177.707520,3404.830078 
	C5175.238770,3405.603760 5172.602539,3406.882568 5170.843262,3408.701660 
	C5161.791016,3418.060303 5151.821777,3425.322754 5138.024902,3425.047607 
	C5128.792480,3431.860107 5118.045898,3431.304932 5107.427246,3431.258057 
	C5106.196777,3431.252686 5104.969238,3430.592529 5102.847656,3429.977051 
	C5103.589844,3427.548828 5103.741211,3424.691406 5105.173340,3422.808594 
	C5109.591797,3417.000732 5114.044922,3411.085938 5119.313477,3406.086670 
	C5129.619629,3396.307129 5140.089844,3386.913574 5137.513672,3370.641602 
	C5141.735352,3359.481689 5146.458496,3348.481201 5150.059570,3337.124512 
	C5155.261230,3320.720947 5165.262207,3308.010742 5178.041016,3296.987061 
	C5182.567383,3293.082520 5186.683105,3288.645996 5190.609375,3284.124756 
	C5192.756836,3281.650879 5195.883301,3278.256348 5195.537109,3275.684814 
	C5193.701660,3262.037109 5204.593750,3251.209961 5203.154297,3237.552002 
	C5202.655273,3232.816650 5205.399414,3227.218750 5207.991211,3222.792969 
	C5212.660645,3214.817627 5218.233398,3207.359131 5223.612793,3199.815674 
	C5228.987793,3192.279297 5234.448730,3184.795410 5240.133789,3177.492432 
	C5244.616699,3171.734863 5249.492188,3166.283203 5254.201660,3160.702393 
	C5257.809082,3156.427734 5260.462402,3152.008301 5256.472656,3146.356201 
	C5249.111816,3147.408447 5245.016602,3153.276611 5241.194336,3158.234375 
	C5229.896973,3172.888672 5214.082031,3179.229980 5197.140137,3182.946533 
	C5190.917969,3184.311279 5185.726562,3185.875732 5181.615723,3190.594238 
	C5176.920410,3195.984375 5170.931641,3198.121338 5163.903809,3198.381348 
	C5157.919922,3198.602783 5151.966309,3199.729492 5145.984863,3199.878418 
	C5139.166992,3200.047852 5133.424805,3202.302246 5127.215332,3205.242188 
	C5114.729980,3211.154053 5101.658203,3216.515869 5088.251465,3219.594727 
	C5075.416992,3222.542236 5061.858398,3222.398438 5048.604980,3223.445068 
	C5035.202148,3224.503906 5023.540527,3228.688721 5011.610840,3235.846436 
	C5000.209961,3242.686768 4987.586914,3249.204346 4973.211914,3250.695557 
	C4956.127930,3252.467529 4939.283203,3256.439209 4922.233398,3258.698242 
	C4913.705566,3259.827881 4904.954102,3259.428955 4896.303711,3259.422363 
	C4889.415039,3259.416992 4883.907715,3261.498535 4878.032227,3265.668945 
	C4860.726562,3277.951660 4841.674805,3287.902100 4825.065918,3300.997070 
	C4811.135254,3311.980957 4796.653320,3318.156738 4779.357910,3322.142822 
	C4762.353027,3326.061523 4743.887207,3328.977295 4729.688965,3341.501953 
	C4727.933105,3343.050537 4724.603516,3342.676758 4722.169922,3343.623047 
	C4715.410645,3346.251465 4707.387695,3347.609131 4702.317383,3352.186768 
	C4692.040527,3361.464111 4678.917480,3364.246582 4667.388672,3370.487305 
	C4665.661133,3371.422607 4663.706055,3372.085205 4661.775879,3372.474609 
	C4646.914062,3375.473145 4632.067383,3378.571533 4617.140137,3381.208984 
	C4610.957520,3382.301514 4605.777832,3384.782715 4601.307617,3389.022949 
	C4600.341309,3389.939697 4599.273438,3390.778809 4598.450684,3391.812012 
	C4583.467285,3410.624023 4563.292969,3418.576904 4539.937012,3420.652100 
	C4532.734863,3421.291992 4525.788086,3424.855469 4518.588867,3425.455322 
	C4508.693848,3426.280518 4498.669922,3425.585693 4488.701172,3425.494385 
	C4469.381348,3425.317627 4450.062012,3424.986572 4430.742188,3425.011230 
	C4426.819824,3425.016113 4422.733398,3425.826660 4419.007812,3427.099609 
	C4407.096680,3431.170410 4395.317871,3435.630615 4383.490234,3439.946533 
	C4382.239746,3440.402832 4381.022461,3441.263672 4379.759766,3441.326416 
	C4354.517090,3442.585205 4330.723145,3454.289795 4304.885254,3451.593750 
	C4300.394531,3451.125244 4294.955566,3451.182373 4291.260742,3453.287842 
	C4281.300293,3458.964600 4270.740234,3458.271240 4260.121582,3458.324219 
	C4249.475586,3458.377197 4238.915527,3458.107178 4228.465332,3461.491455 
	C4223.590332,3463.070557 4217.899902,3462.203857 4212.576660,3462.318604 
	C4172.633789,3463.180176 4132.692871,3464.156494 4092.745850,3464.722656 
	C4085.013184,3464.832520 4078.209961,3466.987305 4072.220215,3471.252197 
	C4066.994629,3474.972656 4061.493652,3475.856201 4055.370850,3476.229004 
	C4037.439941,3477.321289 4019.558350,3479.386719 4001.618652,3480.119385 
	C3973.695557,3481.259766 3945.532227,3484.049561 3917.851562,3481.683594 
	C3883.871582,3478.779297 3850.022949,3480.143066 3816.138428,3479.669434 
	C3779.515137,3479.157471 3742.823730,3479.457764 3706.246582,3481.187500 
	C3683.779297,3482.250000 3661.143799,3482.411377 3638.847900,3487.781006 
	C3624.824463,3491.158691 3609.957031,3491.312988 3595.424316,3492.194092 
	C3586.024414,3492.764404 3576.854004,3493.230469 3569.494385,3500.023438 
	C3564.048096,3497.230225 3558.974121,3495.355713 3554.736572,3492.315674 
	C3542.880615,3483.810303 3529.383057,3481.666260 3515.348145,3479.829346 
	C3500.293945,3477.858887 3485.252441,3474.832031 3470.656982,3470.679932 
	C3462.095215,3468.244385 3453.754639,3467.446289 3445.101562,3467.446045 
	C3413.770508,3467.444336 3382.434082,3467.108154 3351.110352,3467.583984 
	C3334.991699,3467.828857 3321.012207,3464.716797 3310.055908,3451.635254 
	C3306.396973,3447.265869 3300.840088,3443.343506 3295.419189,3441.818604 
	C3281.995850,3438.042480 3271.937012,3429.726562 3262.285645,3420.523682 
	C3255.387695,3413.946533 3248.248047,3408.271484 3237.906982,3408.733154 
	C3230.495850,3409.063965 3225.657715,3403.935791 3220.812988,3399.465576 
	C3206.617432,3386.368408 3192.455322,3373.223633 3178.656006,3359.713623 
	C3171.904541,3353.104004 3165.107666,3347.334229 3155.715820,3344.489990 
	C3150.187500,3342.815430 3145.065918,3339.120117 3140.361328,3335.544189 
	C3129.822998,3327.535156 3119.556885,3319.156494 3109.385986,3310.680908 
	C3103.973145,3306.170654 3097.891846,3304.258301 3091.012695,3304.125977 
	C3082.351318,3303.959717 3073.667725,3303.152100 3065.036865,3303.551270 
	C3044.294434,3304.510254 3023.821289,3301.977783 3003.349365,3299.457764 
	C2997.508545,3298.738525 2991.418213,3297.641846 2986.144531,3295.201416 
	C2974.246826,3289.694580 2962.647949,3283.898438 2949.907471,3280.089355 
	C2944.271973,3278.404297 2938.949219,3276.402344 2932.977539,3275.970459 
	C2929.105469,3275.690674 2924.645996,3275.314209 2921.597656,3273.269287 
	C2906.830811,3263.363037 2891.284668,3254.464111 2880.861084,3239.079102 
	C2875.313477,3230.891113 2867.317383,3224.385254 2861.551514,3216.315918 
	C2853.471191,3205.007324 2842.021484,3196.427490 2836.165771,3183.220459 
	C2833.854980,3178.008545 2828.594971,3174.038818 2824.455322,3169.716309 
	C2813.393799,3158.165039 2802.375977,3146.562500 2791.017822,3135.306641 
	C2783.633057,3127.988281 2778.827393,3119.746338 2778.656494,3107.893799 
	C2790.576660,3093.058350 2805.615967,3079.909668 2819.641846,3065.821777 
	C2826.675049,3058.757080 2834.514404,3052.497803 2841.586426,3045.468994 
	C2872.791748,3014.453613 2903.831299,2983.272217 2934.979004,2952.198975 
	C2940.597656,2946.593750 2946.933350,2941.942383 2953.347412,2937.203613 
	C2965.032715,2928.571045 2974.971924,2917.557129 2985.483643,2907.375977 
	C2986.791016,2906.110352 2987.960938,2903.804688 2987.824951,2902.089600 
	C2986.774658,2888.820801 2994.652344,2877.879150 2997.071289,2865.510254 
	C2999.666260,2852.240479 3007.128662,2843.162109 3020.566406,2838.356689 
	C3038.582764,2831.913574 3056.086182,2824.034912 3073.812012,2816.778320 
	C3074.425537,2816.527100 3075.065674,2816.150879 3075.693359,2816.150391 
	C3093.423096,2816.142334 3107.164062,2806.047119 3121.174072,2797.381104 
	C3143.808350,2783.379883 3166.458984,2769.244629 3187.880859,2753.502930 
	C3201.110107,2743.781738 3215.067627,2735.015625 3227.689209,2724.445557 
	C3239.950195,2714.177734 3251.825195,2703.338867 3264.813721,2694.073730 
	C3286.465576,2678.628906 3308.622803,2663.851807 3331.035400,2649.525879 
	C3349.541016,2637.697266 3367.791992,2625.699463 3385.181641,2612.163086 
	C3414.583252,2589.276123 3444.058105,2566.357666 3476.458740,2547.642334 
	C3483.950928,2543.314453 3490.991699,2538.895508 3500.433105,2539.102295 
	C3509.332031,2539.297363 3517.029297,2534.576416 3523.533447,2528.512939 
	C3535.714355,2517.157715 3547.830322,2505.731201 3559.867676,2494.223633 
	C3565.167969,2489.156738 3570.102051,2484.184814 3578.060547,2482.823242 
	C3586.198242,2481.430664 3592.458008,2475.830811 3597.490723,2469.520020 
	C3614.468262,2448.232666 3633.210205,2428.328857 3646.421387,2404.115234 
	C3655.339844,2387.769775 3664.355713,2371.145752 3675.821045,2356.613281 
	C3687.841797,2341.377197 3701.540771,2326.117676 3724.465820,2328.644531 
	C3733.195312,2329.606445 3739.868164,2326.497314 3745.440918,2319.811523 
	C3752.666016,2311.143066 3760.739746,2303.478760 3769.900391,2296.605957 
	C3777.170166,2291.151855 3782.508057,2283.030273 3788.384277,2275.832031 
	C3797.711182,2264.406738 3806.989746,2253.204102 3822.156982,2248.943604 
	C3825.734131,2247.938721 3829.064209,2245.000732 3831.807373,2242.252930 
	C3851.090332,2222.937500 3870.181641,2203.430908 3889.361816,2184.012939 
	C3891.218994,2182.133057 3892.980713,2179.826904 3895.271484,2178.758545 
	C3915.624756,2169.266357 3934.827393,2156.910400 3957.225586,2152.450439 
	C3962.245117,2151.450928 3966.012207,2149.624756 3968.863281,2145.792236 
	C3975.664307,2136.649902 3985.017090,2132.803223 3995.965088,2130.756592 
	C4012.764404,2127.616455 4026.480957,2117.799072 4038.893066,2106.855469 
	C4047.591064,2099.186768 4054.960449,2098.085449 4065.792725,2102.423340 
	C4078.024170,2107.321289 4088.689697,2112.238525 4093.080078,2125.866943 
	C4093.973633,2128.640625 4097.372070,2130.830322 4099.991699,2132.785400 
	C4109.535156,2139.908936 4119.237305,2146.818848 4129.813477,2154.486572 
	C4134.507812,2150.797363 4138.884277,2147.943359 4142.529297,2144.347656 
	C4147.258789,2139.682129 4150.889648,2133.823242 4155.895996,2129.531006 
	C4174.909668,2113.231445 4188.621582,2092.914307 4201.039062,2071.556396 
	C4203.347168,2067.587158 4205.024414,2063.256592 4207.232422,2059.223633 
	C4211.983398,2050.544189 4216.721191,2041.849243 4221.778809,2033.347534 
	C4227.552734,2023.641235 4234.590332,2014.576172 4239.403809,2004.437500 
	C4245.656250,1991.267822 4255.612305,1981.949219 4266.548828,1973.114136 
	C4271.662109,1968.983154 4277.456543,1965.056885 4281.002930,1959.743286 
	C4292.576660,1942.401489 4308.282715,1929.055664 4322.716309,1914.462891 
	C4326.464844,1910.672852 4330.429199,1907.079590 4333.970703,1903.107788 
	C4335.621094,1901.256836 4338.057617,1898.115723 4337.468262,1896.591064 
	C4334.255859,1888.280029 4340.121094,1884.341187 4344.602051,1879.567627 
	C4359.175781,1864.041138 4373.881348,1848.633911 4388.208496,1832.882568 
	C4396.125488,1824.178955 4405.002930,1817.968262 4417.215332,1817.805664 
	C4426.716797,1836.022095 4441.962891,1844.307861 4462.287598,1844.187866 
	C4468.882324,1844.148804 4475.480957,1844.876343 4480.016113,1845.135498 
	C4487.193359,1849.176147 4485.645508,1857.439575 4493.379883,1859.137573 
	C4498.096191,1860.173096 4501.993164,1864.943115 4506.562500,1868.256592 
	C4504.522949,1871.518799 4502.908203,1874.101074 4501.019043,1877.122559 
	C4503.579590,1882.090576 4505.937012,1887.517212 4509.075684,1892.446411 
	C4511.108398,1895.638916 4513.929688,1898.599854 4517.014160,1900.801392 
	C4525.653809,1906.968262 4535.249023,1911.940552 4543.277344,1918.780640 
	C4552.262695,1926.436035 4561.698730,1934.537354 4567.790527,1944.390869 
	C4577.687012,1960.399048 4589.309082,1974.611206 4602.853516,1987.382812 
	C4605.525879,1989.902710 4609.721191,1992.360840 4613.144531,1992.268433 
	C4630.338379,1991.803955 4641.890137,2001.517578 4652.475098,2012.979370 
	C4661.054199,2022.269531 4669.119141,2032.034546 4677.400879,2041.598633 
	C4678.706543,2043.106445 4680.617188,2044.473999 4681.123047,2046.230591 
	C4686.140625,2063.653809 4700.266602,2072.823242 4713.686035,2082.666748 
	C4714.756348,2083.452148 4715.768555,2084.316895 4717.878906,2086.086670 
z"/>
</svg>