<svg width="800" height="600" xmlns="http://www.w3.org/2000/svg">

 <g>
  <title>Layer 1</title>
  <line stroke-linecap="undefined" stroke-linejoin="undefined" id="svg_3" y2="382.02899" x2="25.79713" y1="354.20291" x1="57.10148" stroke="#000" fill="none"/>
  <line stroke-linecap="undefined" stroke-linejoin="undefined" id="svg_4" y2="380.28986" x2="24.058" y1="410.72465" x1="213.62322" stroke="#000" fill="none"/>
  <line stroke-linecap="undefined" stroke-linejoin="undefined" id="svg_5" y2="411.59421" x2="215.36235" y1="388.11595" x1="333.62323" stroke="#000" fill="none"/>
  <line stroke-linecap="undefined" stroke-linejoin="undefined" id="svg_7" y2="348.98551" x2="548.40584" y1="356.8116" x1="505.79715" stroke="#000" fill="none"/>
  <line stroke-linecap="undefined" stroke-linejoin="undefined" id="svg_8" y2="349.85508" x2="547.53628" y1="363.76812" x1="627.53628" stroke="#000" fill="none"/>
  <line stroke-linecap="undefined" stroke-linejoin="undefined" id="svg_9" y2="343.76812" x2="625.79715" y1="342.02899" x1="774.49281" stroke="#000" fill="none"/>
  <line stroke-linecap="undefined" stroke-linejoin="undefined" id="svg_10" y2="341.15943" x2="625.79715" y1="362.02899" x1="631.01454" stroke="#000" fill="none"/>
  <line stroke-linecap="undefined" stroke-linejoin="undefined" id="svg_11" y2="514.20291" x2="775.36237" y1="342.02899" x1="775.36237" stroke="#000" fill="none"/>
  <line stroke-linecap="undefined" stroke-linejoin="undefined" id="svg_12" y2="515.94204" x2="776.23194" y1="507.24639" x1="11.88408" stroke="#000" fill="none"/>
  <line stroke-linecap="undefined" stroke-linejoin="undefined" id="svg_13" y2="351.59421" x2="-2.02896" y1="352.46378" x1="53.62322" stroke="#000" fill="none"/>
  <line stroke-linecap="undefined" stroke-linejoin="undefined" id="svg_14" y2="355.94204" x2="-3.76809" y1="505.50726" x1="11.88408" stroke="#000" fill="none"/>
  <path d="m333.62323,384.6377c0,0.86957 1.12427,0.2547 1.73914,0.86957c0.61487,0.61487 0.93576,1.40637 1.73914,1.73914c1.13611,0.47058 1.12424,1.12424 1.73911,1.73911c0.61487,0.61487 0.86957,0.86957 1.73914,1.73914c0,0 0.2547,0.2547 0.86957,0.86957c0.61487,0.61487 0.86957,0.86957 0.86957,0.86957c0.86957,0 1.73914,0 1.73914,0c1.73914,0.86957 1.58588,1.29239 3.47827,1.73914c1.6926,0.39957 2.60867,0 3.47824,0c1.73914,0 3.47827,0.86957 4.34784,0.86957c0.86957,0 0.86957,0 1.73914,0c0.86954,0 0.60297,0.39896 1.73911,0.86957c0.80338,0.33276 0.86957,0 2.6087,0c0.86957,0 1.73914,0 3.47827,0c1.73914,0 3.47824,0 5.21738,0c2.6087,0 4.34784,0.86957 6.08698,0.86957c2.60867,0 4.34781,0 5.21738,0c2.6087,0 3.47827,0.86957 5.21741,0.86957c0.86957,0 2.60867,0 3.47824,0c0.86957,0 1.73914,0 2.6087,0c0.86957,0 2.6087,0 3.47827,0c1.73914,0 2.60867,0 5.21738,0c1.73914,0 5.21741,0 6.95654,0c0.86954,0 5.21738,0 6.95651,0c1.73914,0 5.21738,0 6.95651,0c1.73914,0 4.34784,0 5.21741,0c0.86957,0 1.9938,0.61487 2.60867,0c0.61487,-0.61487 0.86957,-0.86957 0.86957,-0.86957c1.73914,0 1.73914,0 3.47827,0c0.86957,0 2.6087,0 4.34784,0c2.60867,0 3.32498,-0.42282 5.21738,-0.86957c0.84631,-0.1998 2.34213,-0.39896 3.47827,-0.86957c0.80338,-0.33276 2.60867,-0.86957 2.60867,-0.86957c0.86957,0 2.34213,-0.39896 3.47827,-0.86957c0.80338,-0.33276 1.73914,-0.86957 2.6087,-0.86957c0.86957,0 1.80533,0.33276 2.6087,0c1.13611,-0.47061 2.60867,-0.86957 3.47824,-0.86957c1.73914,0 2.34213,-0.39896 3.47827,-0.86957c0.80338,-0.33276 1.87152,0.66553 3.47824,0c1.13614,-0.47061 1.73914,-1.73914 3.47827,-1.73914c0,0 0.86957,0 1.73914,-0.86957c0,0 0.86957,0 1.73914,-0.86954c0,0 -0.26657,-0.39896 0.86957,-0.86957c0.80338,-0.33276 1.12427,0.61487 1.73914,0c0.61487,-0.61487 0.86954,-0.86957 0.86954,-0.86957c1.73914,0 2.13809,0.26657 2.6087,-0.86957c0.33276,-0.80338 0.86957,-0.86957 0.86957,-0.86957c0.86957,0 1.12427,0.61487 1.73914,0c0.61487,-0.61487 0.2547,-0.2547 0.86957,-0.86957c0.61487,-0.61487 0.86957,-0.86957 0.86957,-1.73914c0,-0.86957 0,-0.86957 0,-0.86957c0.86957,0 0.86957,-0.86957 1.73914,-1.73914c0,0 0.86957,-0.86954 1.73911,-1.73911c0,0 -0.26657,-1.26852 0.86957,-1.73914c0.80338,-0.33276 0.86957,-0.86957 0.86957,-1.73914c0,0 1.12427,0.61487 1.73914,0c0.61487,-0.61487 0,-1.73914 0,-1.73914c0,0 -0.61487,-1.12427 0,-1.73914c0.61487,-0.61487 0.2547,-0.2547 0.86957,-0.86957c0.61487,-0.61487 0.86957,-0.86957 0.86957,-0.86957c0,-0.86954 0,-1.73911 0,-1.73911c0,0 -0.61487,-1.12427 0,-1.73914c0.61487,-0.61487 0.86957,0 0.86957,-0.86957c0,-0.86957 0,-0.86957 0,-1.73914c0,-0.86957 0,-0.86957 0,-1.73914c0,-0.86957 0,-0.86957 0,-1.73914c0,-0.86957 0,-0.86957 0,-1.73911c0,-0.86957 -0.86957,-0.86957 -0.86957,-0.86957l0,-0.86957l0,-0.86957" id="svg_16" stroke="#000" fill="none"/>
 </g>
</svg>