<svg width="800" height="600" xmlns="http://www.w3.org/2000/svg">

 <g>
  <title>Layer 1</title>
  <line stroke-linecap="undefined" stroke-linejoin="undefined" id="svg_3" y2="382.02899" x2="25.79713" y1="354.20291" x1="57.10148" stroke="#000" fill="none"/>
  <line stroke-linecap="undefined" stroke-linejoin="undefined" id="svg_4" y2="380.28986" x2="24.058" y1="410.72465" x1="213.62322" stroke="#000" fill="none"/>
  <line stroke-linecap="undefined" stroke-linejoin="undefined" id="svg_5" y2="411.59421" x2="215.36235" y1="388.11595" x1="333.62323" stroke="#000" fill="none"/>
  <line stroke-linecap="undefined" stroke-linejoin="undefined" id="svg_7" y2="348.98551" x2="548.40584" y1="356.8116" x1="505.79715" stroke="#000" fill="none"/>
  <line stroke-linecap="undefined" stroke-linejoin="undefined" id="svg_8" y2="349.85508" x2="547.53628" y1="363.76812" x1="627.53628" stroke="#000" fill="none"/>
  <line stroke-linecap="undefined" stroke-linejoin="undefined" id="svg_10" y2="341.15943" x2="625.79715" y1="362.02899" x1="631.01454" stroke="#000" fill="none"/>
  <path d="m333.62323,384.6377c0,0.86957 1.12427,0.2547 1.73914,0.86957c0.61487,0.61487 0.93576,1.40637 1.73914,1.73914c1.13611,0.47058 1.12424,1.12424 1.73911,1.73911c0.61487,0.61487 0.86957,0.86957 1.73914,1.73914c0,0 0.2547,0.2547 0.86957,0.86957c0.61487,0.61487 0.86957,0.86957 0.86957,0.86957c0.86957,0 1.73914,0 1.73914,0c1.73914,0.86957 1.58588,1.29239 3.47827,1.73914c1.6926,0.39957 2.60867,0 3.47824,0c1.73914,0 3.47827,0.86957 4.34784,0.86957c0.86957,0 0.86957,0 1.73914,0c0.86954,0 0.60297,0.39896 1.73911,0.86957c0.80338,0.33276 0.86957,0 2.6087,0c0.86957,0 1.73914,0 3.47827,0c1.73914,0 3.47824,0 5.21738,0c2.6087,0 4.34784,0.86957 6.08698,0.86957c2.60867,0 4.34781,0 5.21738,0c2.6087,0 3.47827,0.86957 5.21741,0.86957c0.86957,0 2.60867,0 3.47824,0c0.86957,0 1.73914,0 2.6087,0c0.86957,0 2.6087,0 3.47827,0c1.73914,0 2.60867,0 5.21738,0c1.73914,0 5.21741,0 6.95654,0c0.86954,0 5.21738,0 6.95651,0c1.73914,0 5.21738,0 6.95651,0c1.73914,0 4.34784,0 5.21741,0c0.86957,0 1.9938,0.61487 2.60867,0c0.61487,-0.61487 0.86957,-0.86957 0.86957,-0.86957c1.73914,0 1.73914,0 3.47827,0c0.86957,0 2.6087,0 4.34784,0c2.60867,0 3.32498,-0.42282 5.21738,-0.86957c0.84631,-0.1998 2.34213,-0.39896 3.47827,-0.86957c0.80338,-0.33276 2.60867,-0.86957 2.60867,-0.86957c0.86957,0 2.34213,-0.39896 3.47827,-0.86957c0.80338,-0.33276 1.73914,-0.86957 2.6087,-0.86957c0.86957,0 1.80533,0.33276 2.6087,0c1.13611,-0.47061 2.60867,-0.86957 3.47824,-0.86957c1.73914,0 2.34213,-0.39896 3.47827,-0.86957c0.80338,-0.33276 1.87152,0.66553 3.47824,0c1.13614,-0.47061 1.73914,-1.73914 3.47827,-1.73914c0,0 0.86957,0 1.73914,-0.86957c0,0 0.86957,0 1.73914,-0.86954c0,0 -0.26657,-0.39896 0.86957,-0.86957c0.80338,-0.33276 1.12427,0.61487 1.73914,0c0.61487,-0.61487 0.86954,-0.86957 0.86954,-0.86957c1.73914,0 2.13809,0.26657 2.6087,-0.86957c0.33276,-0.80338 0.86957,-0.86957 0.86957,-0.86957c0.86957,0 1.12427,0.61487 1.73914,0c0.61487,-0.61487 0.2547,-0.2547 0.86957,-0.86957c0.61487,-0.61487 0.86957,-0.86957 0.86957,-1.73914c0,-0.86957 0,-0.86957 0,-0.86957c0.86957,0 0.86957,-0.86957 1.73914,-1.73914c0,0 0.86957,-0.86954 1.73911,-1.73911c0,0 -0.26657,-1.26852 0.86957,-1.73914c0.80338,-0.33276 0.86957,-0.86957 0.86957,-1.73914c0,0 1.12427,0.61487 1.73914,0c0.61487,-0.61487 0,-1.73914 0,-1.73914c0,0 -0.61487,-1.12427 0,-1.73914c0.61487,-0.61487 0.2547,-0.2547 0.86957,-0.86957c0.61487,-0.61487 0.86957,-0.86957 0.86957,-0.86957c0,-0.86954 0,-1.73911 0,-1.73911c0,0 -0.61487,-1.12427 0,-1.73914c0.61487,-0.61487 0.86957,0 0.86957,-0.86957c0,-0.86957 0,-0.86957 0,-1.73914c0,-0.86957 0,-0.86957 0,-1.73914c0,-0.86957 0,-0.86957 0,-1.73914c0,-0.86957 0,-0.86957 0,-1.73911c0,-0.86957 -0.86957,-0.86957 -0.86957,-0.86957l0,-0.86957l0,-0.86957" id="svg_16" stroke="#000" fill="none"/>
  <line stroke-linecap="undefined" stroke-linejoin="undefined" id="svg_17" y2="296.8116" x2="156.23192" y1="346.37682" x1="62.31887" stroke="#000" fill="none"/>
  <line stroke-linecap="undefined" stroke-linejoin="undefined" id="svg_18" y2="298.55073" x2="153.62322" y1="250.72464" x1="165.79713" stroke="#000" fill="none"/>
  <line stroke-linecap="undefined" stroke-linejoin="undefined" id="svg_19" y2="250.72464" x2="161.44931" y1="241.15942" x1="183.18844" stroke="#000" fill="none"/>
  <line stroke-linecap="undefined" stroke-linejoin="undefined" id="svg_20" y2="239.42029" x2="184.058" y1="265.50725" x1="200.57974" stroke="#000" fill="none"/>
  <line stroke-linecap="undefined" stroke-linejoin="undefined" id="svg_21" y2="182.02899" x2="276.23192" y1="262.02899" x1="213.62322" stroke="#000" fill="none"/>
  <line stroke-linecap="undefined" stroke-linejoin="undefined" id="svg_22" y2="183.76812" x2="280.57975" y1="212.46377" x1="294.49279" stroke="#000" fill="none"/>
  <line stroke-linecap="undefined" stroke-linejoin="undefined" id="svg_23" y2="138.55072" x2="345.79714" y1="206.37681" x1="302.31888" stroke="#000" fill="none"/>
  <line stroke-linecap="undefined" stroke-linejoin="undefined" id="svg_24" y2="134.2029" x2="349.2754" y1="173.33333" x1="367.53627" stroke="#000" fill="none"/>
  <line stroke-linecap="undefined" stroke-linejoin="undefined" id="svg_25" y2="102.02898" x2="417.10149" y1="164.63768" x1="377.10149" stroke="#000" fill="none"/>
  <line stroke-linecap="undefined" stroke-linejoin="undefined" id="svg_26" y2="115.07246" x2="411.8841" y1="70.72464" x1="413.62323" stroke="#000" fill="none"/>
  <line stroke-linecap="undefined" stroke-linejoin="undefined" id="svg_27" y2="127.24638" x2="481.44932" y1="72.46377" x1="457.10149" stroke="#000" fill="none"/>
  <line stroke-linecap="undefined" stroke-linejoin="undefined" id="svg_28" y2="126.37681" x2="484.05801" y1="157.68116" x1="500.57975" stroke="#000" fill="none"/>
  <line stroke-linecap="undefined" stroke-linejoin="undefined" id="svg_29" y2="161.15942" x2="497.97106" y1="252.46377" x1="528.40584" stroke="#000" fill="none"/>
  <line stroke-linecap="undefined" stroke-linejoin="undefined" id="svg_30" y2="248.98551" x2="530.14497" y1="268.98551" x1="556.23193" stroke="#000" fill="none"/>
  <line stroke-linecap="undefined" stroke-linejoin="undefined" id="svg_31" y2="269.85508" x2="557.97106" y1="311.59421" x1="570.14497" stroke="#000" fill="none"/>
  <line stroke-linecap="undefined" stroke-linejoin="undefined" id="svg_32" y2="342.02899" x2="628.40585" y1="308.98551" x1="579.71019" stroke="#000" fill="none"/>
  <line stroke-linecap="undefined" stroke-linejoin="undefined" id="svg_33" y2="72.46377" x2="458.84062" y1="69.85507" x1="411.01453" stroke="#000" fill="none"/>
 </g>
</svg>